<svg width="16" height="17" viewBox="0 0 16 17" fill="none" xmlns="http://www.w3.org/2000/svg">
<path fill-rule="evenodd" clip-rule="evenodd" d="M7.25 3.5C4.90279 3.5 3 5.40279 3 7.75C3 10.0972 4.90279 12 7.25 12C9.59721 12 11.5 10.0972 11.5 7.75C11.5 5.40279 9.59721 3.5 7.25 3.5ZM1 7.75C1 4.29822 3.79822 1.5 7.25 1.5C10.7018 1.5 13.5 4.29822 13.5 7.75C13.5 11.2018 10.7018 14 7.25 14C3.79822 14 1 11.2018 1 7.75Z" fill="#50555C"/>
<path fill-rule="evenodd" clip-rule="evenodd" d="M10.2929 10.7929C10.6834 10.4024 11.3166 10.4024 11.7071 10.7929L14.7071 13.7929C15.0976 14.1834 15.0976 14.8166 14.7071 15.2071C14.3166 15.5976 13.6834 15.5976 13.2929 15.2071L10.2929 12.2071C9.90237 11.8166 9.90237 11.1834 10.2929 10.7929Z" fill="#50555C"/>
</svg>
